<mxfile host="app.diagrams.net" agent="Mozilla/5.0 (Windows NT 10.0; Win64; x64) AppleWebKit/537.36 (KHTML, like Gecko) Chrome/133.0.0.0 Safari/537.36" version="26.0.11">
  <diagram name="Pagina-1" id="vBiUV26l8ADdMEgy12u2">
    <mxGraphModel dx="954" dy="502" grid="1" gridSize="10" guides="1" tooltips="1" connect="1" arrows="1" fold="1" page="1" pageScale="1" pageWidth="827" pageHeight="1169" math="0" shadow="0">
      <root>
        <mxCell id="0" />
        <mxCell id="1" parent="0" />
        <mxCell id="aheTaSR8NujRHp2K6A_--1" value="&lt;b&gt;Stations&lt;/b&gt;&lt;br&gt;-----------&lt;br&gt;stationid &lt;b&gt;(PK)&lt;/b&gt;&lt;br&gt;stationname&lt;br&gt;lat&lt;br&gt;lon&lt;br&gt;regio" style="rounded=0;whiteSpace=wrap;html=1;fillColor=#f5f5f5;strokeColor=#666666;shadow=0;glass=0;fontColor=#333333;" vertex="1" parent="1">
          <mxGeometry x="100" y="140" width="200" height="120" as="geometry" />
        </mxCell>
        <mxCell id="aheTaSR8NujRHp2K6A_--2" value="&lt;div&gt;&lt;b&gt;Measurements&lt;/b&gt;&lt;/div&gt;&lt;div&gt;---------------------&lt;/div&gt;&lt;div&gt;measurementid &lt;b&gt;(PK)&lt;/b&gt;&lt;/div&gt;&lt;div&gt;timestamp&lt;/div&gt;&lt;div&gt;temperature&lt;/div&gt;&lt;div&gt;groundtemperature&lt;/div&gt;&lt;div&gt;feeltemperature&lt;/div&gt;&lt;div&gt;windgusts&lt;/div&gt;&lt;div&gt;windspeedBft&lt;br&gt;&lt;span style=&quot;background-color: transparent; color: light-dark(rgb(0, 0, 0), rgb(255, 255, 255));&quot;&gt;humidity&lt;/span&gt;&lt;/div&gt;&lt;div&gt;&lt;span style=&quot;background-color: transparent; color: light-dark(rgb(0, 0, 0), rgb(255, 255, 255));&quot;&gt;precipitation&lt;/span&gt;&lt;/div&gt;&lt;div&gt;&lt;span style=&quot;background-color: transparent; color: light-dark(rgb(0, 0, 0), rgb(255, 255, 255));&quot;&gt;sunpower&lt;/span&gt;&lt;/div&gt;&lt;div&gt;&lt;span style=&quot;background-color: transparent; color: light-dark(rgb(0, 0, 0), rgb(255, 255, 255));&quot;&gt;stationid &lt;b&gt;(FK)&lt;/b&gt;&lt;/span&gt;&lt;/div&gt;" style="rounded=0;whiteSpace=wrap;html=1;fillColor=#f5f5f5;strokeColor=#666666;fontColor=#333333;" vertex="1" parent="1">
          <mxGeometry x="414" y="90" width="260" height="200" as="geometry" />
        </mxCell>
        <mxCell id="aheTaSR8NujRHp2K6A_--3" value="" style="endArrow=none;html=1;rounded=0;exitX=1;exitY=0.5;exitDx=0;exitDy=0;entryX=-0.004;entryY=0.553;entryDx=0;entryDy=0;entryPerimeter=0;" edge="1" parent="1" source="aheTaSR8NujRHp2K6A_--1" target="aheTaSR8NujRHp2K6A_--2">
          <mxGeometry width="50" height="50" relative="1" as="geometry">
            <mxPoint x="390" y="290" as="sourcePoint" />
            <mxPoint x="440" y="240" as="targetPoint" />
          </mxGeometry>
        </mxCell>
        <mxCell id="aheTaSR8NujRHp2K6A_--4" value="(//1 station can &lt;br&gt;have multiple &lt;br&gt;Measurements &lt;br&gt;attributes)&lt;br&gt;&lt;br&gt;&lt;b&gt;&lt;font style=&quot;font-size: 13px;&quot;&gt;1:N&lt;/font&gt;&lt;/b&gt;" style="edgeLabel;html=1;align=center;verticalAlign=middle;resizable=0;points=[];" vertex="1" connectable="0" parent="aheTaSR8NujRHp2K6A_--3">
          <mxGeometry x="0.3459" y="-4" relative="1" as="geometry">
            <mxPoint x="-16" y="-54" as="offset" />
          </mxGeometry>
        </mxCell>
      </root>
    </mxGraphModel>
  </diagram>
</mxfile>
